<?xml version="1.0" encoding="UTF-8"?>
<svg xmlns="http://www.w3.org/2000/svg" width="64" height="64" viewBox="0 0 64 64">
  <rect x="4" y="4" width="56" height="56" fill="#fff" stroke="#333" stroke-width="2"/>
  <g fill="#000">
    <rect x="10" y="10" width="16" height="16"/><rect x="38" y="10" width="16" height="16"/><rect x="10" y="38" width="16" height="16"/>
    <rect x="30" y="30" width="4" height="4"/><rect x="38" y="34" width="4" height="4"/><rect x="46" y="30" width="4" height="4"/><rect x="42" y="42" width="4" height="4"/><rect x="50" y="46" width="4" height="4"/><rect x="34" y="50" width="4" height="4"/><rect x="30" y="42" width="4" height="4"/>
  </g>
  <g fill="#fff"><rect x="14" y="14" width="8" height="8"/><rect x="42" y="14" width="8" height="8"/><rect x="14" y="42" width="8" height="8"/></g>
  <g fill="#000"><rect x="16" y="16" width="4" height="4"/><rect x="44" y="16" width="4" height="4"/><rect x="16" y="44" width="4" height="4"/></g>
</svg>
